# Blender 5.0.1
# www.blender.org
mtllib cube-diffuse.mtl
o cube-diffuse
v 0.000000 0.000000 0.000000
v 0.000000 1.000000 -0.000000
v 1.000000 1.000000 -0.000000
v 1.000000 0.000000 0.000000
v 0.000000 0.000000 1.000000
v 0.000000 1.000000 1.000000
v 1.000000 1.000000 1.000000
v 1.000000 0.000000 1.000000
vn 1.0000 -0.0000 -0.0000
vn -1.0000 -0.0000 -0.0000
vn -0.0000 1.0000 -0.0000
vn -0.0000 -1.0000 -0.0000
vn -0.0000 -0.0000 1.0000
vn -0.0000 -0.0000 -1.0000
s 1
usemtl face-purple
f 3//1 7//1 8//1
f 3//1 8//1 4//1
usemtl face-blue
f 8//5 7//5 6//5
f 8//5 6//5 5//5
usemtl face-black
f 3//6 4//6 1//6
f 3//6 1//6 2//6
usemtl face-white
f 1//2 5//2 6//2
f 1//2 6//2 2//2
usemtl face-green
f 7//3 3//3 2//3
f 7//3 2//3 6//3
usemtl face-yellow
f 4//4 8//4 5//4
f 4//4 5//4 1//4
